<svg width="284" height="289" viewBox="0 0 284 289" fill="none" xmlns="http://www.w3.org/2000/svg">
<g opacity="0.4">
<path d="M128.408 272.025C128.147 271.519 127.874 270.994 127.619 270.441C127.601 270.402 127.583 270.361 127.566 270.32C127.314 269.79 127.065 269.234 126.819 268.666C126.766 268.544 126.716 268.427 126.664 268.304C126.412 267.711 126.163 267.1 125.921 266.47C125.873 266.345 125.828 266.217 125.779 266.091C125.53 265.425 125.284 264.748 125.051 264.047C124.106 261.226 123.419 258.317 122.998 255.355C122.978 255.216 122.958 255.076 122.942 254.938C122.855 254.249 122.781 253.554 122.728 252.853C122.728 252.755 122.717 252.663 122.71 252.564C122.667 251.915 122.641 251.264 122.632 250.612C122.632 250.501 122.632 250.389 122.632 250.278C122.632 249.58 122.652 248.886 122.691 248.191C122.691 248.047 122.711 247.9 122.722 247.754C122.774 247.04 122.841 246.322 122.945 245.612L121.42 245.719C119.638 245.815 117.85 245.726 116.083 245.452C114.032 245.117 112.019 244.55 110.081 243.759C108.039 242.93 106.073 241.9 104.21 240.683C101.558 238.868 99.0028 236.895 96.5595 234.772C95.1615 233.611 93.6675 232.367 91.7568 230.862C89.3439 228.954 86.5984 226.915 83.7507 225.099V225.088C81.0922 223.344 78.2658 221.91 75.3201 220.809C72.7783 219.935 70.1346 219.444 67.4656 219.348C64.9053 219.273 62.3433 219.358 59.7927 219.607L58.916 219.677C54.0964 220.384 49.1975 220.192 44.4398 219.107C41.9174 218.323 39.5059 217.183 37.2689 215.714C35.1587 214.348 33.1273 212.847 31.1874 211.219C29.2732 209.639 27.5337 208.1 26.2368 206.816C25.1233 205.841 24.2034 204.639 23.531 203.281C23.2726 202.658 23.1804 201.972 23.2642 201.297L22.8386 201.633C20.0667 203.815 16.9029 205.363 13.5448 206.184C10.3642 206.981 7.04943 206.938 3.88867 206.056C1.15889 205.244 -1.33922 203.725 -3.38209 201.632C-5.48189 199.478 -7.09729 196.846 -8.10591 193.933C-9.03211 191.272 -9.45485 188.444 -9.35077 185.607C-9.30956 182.974 -8.59091 180.404 -7.2728 178.175C-5.99268 176.255 -4.16683 174.823 -2.06428 174.094C-1.60538 173.917 -1.14403 173.761 -0.68146 173.624C-0.517706 173.576 -0.352582 173.538 -0.18715 173.494C0.113497 173.413 0.415519 173.327 0.717997 173.257C0.918988 173.211 1.12242 173.169 1.32173 173.128C1.59567 173.071 1.86778 173.01 2.14172 172.956L2.87319 172.819L3.64633 172.676C3.97719 172.595 4.32072 172.587 4.65479 172.652C4.98902 172.717 5.30691 172.853 5.58954 173.055C5.87203 173.255 6.11362 173.515 6.29828 173.82C6.48294 174.124 6.60671 174.464 6.66317 174.822C6.71964 175.178 6.70758 175.544 6.6267 175.895C6.54581 176.246 6.39824 176.577 6.19328 176.866C5.98817 177.154 5.72964 177.395 5.43403 177.574C5.13842 177.751 4.81183 177.863 4.4741 177.902C4.08097 177.972 3.68753 178.044 3.29791 178.119L2.90265 178.197C2.63588 178.249 2.36927 178.302 2.11135 178.358C1.95477 178.392 1.80399 178.428 1.65092 178.463C1.42139 178.517 1.19308 178.574 0.972557 178.633C0.821318 178.673 0.673738 178.717 0.526009 178.759C0.431695 178.787 0.33189 178.811 0.239406 178.841L0.310524 178.831C0.0793164 178.906 -0.15693 178.976 -0.370435 179.057C-0.674134 179.174 -0.97112 179.312 -1.26002 179.467C-1.35067 179.514 -1.43781 179.574 -1.51976 179.626C-1.70336 179.732 -1.88115 179.849 -2.05299 179.976C-2.08504 179.999 -2.1209 180.017 -2.15127 180.041L-2.10167 180.018C-2.51662 180.329 -2.8771 180.714 -3.16844 181.155C-3.96202 182.569 -4.38323 184.184 -4.3872 185.832C-4.4632 187.962 -4.14439 190.09 -3.44817 192.089C-2.69976 194.251 -1.50267 196.204 0.0542878 197.803C1.50197 199.298 3.27533 200.386 5.21427 200.97C7.59503 201.619 10.0886 201.638 12.478 201.027C15.1684 200.368 17.7027 199.125 19.9234 197.377C22.6435 195.226 24.9195 192.504 26.6104 189.377C28.2669 186.378 29.2947 183.032 29.6237 179.571C29.9236 175.669 29.3832 171.747 28.0428 168.104C27.0788 165.419 25.7144 162.915 24.0026 160.693L23.8046 160.443C23.2325 159.723 22.6222 159.04 21.976 158.395C19.117 155.613 15.696 153.567 11.9776 152.417C7.7513 151.099 3.33255 150.629 -1.0549 151.031C-8.23212 151.974 -15.3013 153.693 -22.1515 156.164C-25.2931 157.161 -28.4005 158.149 -31.4462 158.983C-36.2567 160.345 -41.1664 161.272 -46.1231 161.753C-49.9921 162.172 -53.8987 161.963 -57.7086 161.131C-60.905 160.26 -63.9438 158.83 -66.7001 156.897C-67.5841 156.24 -68.5452 155.71 -69.5589 155.32L-69.6658 155.308C-69.7565 155.308 -69.8895 155.46 -70.0549 155.735C-70.5645 156.756 -70.8566 157.883 -70.9106 159.038C-70.9982 159.986 -71.0215 160.94 -70.9801 161.892C-70.7974 165.501 -70.1345 169.065 -69.0108 172.476C-68.0389 175.619 -66.5973 178.572 -64.7413 181.224C-61.0569 186.276 -55.4015 189.303 -49.4648 192.481L-47.9291 193.304C-44.4213 195.143 -41.0038 197.173 -37.6893 199.382C-34.3107 201.627 -31.2095 204.312 -28.4579 207.378C-24.9392 211.716 -21.8914 216.463 -19.3725 221.529C-18.1379 223.805 -16.8819 226.108 -15.4409 228.497C-13.1198 232.419 -10.46 236.1 -7.49699 239.494C-5.10295 242.255 -2.37012 244.655 0.62765 246.635C3.75377 248.587 7.15367 249.992 10.6972 250.795C14.5246 251.658 18.4136 252.168 22.3226 252.321C24.8221 252.456 27.5725 252.511 30.3282 252.57C36.2351 252.528 42.1371 252.957 47.9839 253.852C51.9557 254.595 55.84 255.794 59.5701 257.427C62.9635 258.917 66.2407 260.693 69.3697 262.738C73.3743 265.327 76.8233 268.06 80.3596 270.862C81.8934 272.077 83.4516 273.31 85.4249 274.805C88.1505 276.91 90.9906 278.842 93.9284 280.592C96.7945 282.313 99.8498 283.65 103.024 284.574C106.044 285.385 109.162 285.714 112.274 285.545C115.589 285.368 118.867 284.715 122.018 283.603C124.333 282.781 126.589 281.778 128.767 280.602C130.05 279.917 131.346 279.169 132.648 278.378C131.314 276.945 130.168 275.33 129.237 273.573C128.965 273.089 128.687 272.572 128.408 272.025Z" stroke="#279EFF" stroke-width="2" stroke-miterlimit="10"/>
<path d="M178.404 283.356C182.128 281.485 185.647 279.185 188.901 276.498C192.188 273.844 195.323 270.872 198.221 268.008L200.903 265.337C205.69 260.535 209.93 256.283 214.957 253.416C217.978 251.732 221.197 250.487 224.527 249.712C227.781 248.954 231.083 248.447 234.406 248.196C236.216 248.04 238.175 247.931 240.135 247.817C244.55 247.682 248.951 247.201 253.301 246.378C259.858 244.953 266.065 242.082 271.521 237.949C274.225 235.888 276.753 233.572 279.071 231.033C280.122 229.903 281.102 228.699 282.001 227.43H280.881C279.573 227.43 278.05 227.43 276.402 227.299C272.977 226.999 269.607 226.214 266.378 224.961C263.197 223.741 260.186 222.061 257.435 219.969C252.368 215.687 247.808 210.766 243.854 205.314L241.214 202.003C238.821 198.984 236.277 196.103 233.594 193.377C231.06 190.802 228.275 188.525 225.287 186.581C222.41 184.774 219.356 183.307 216.181 182.204C212.654 180.975 209.029 180.085 205.351 179.55C202.627 179.143 199.947 178.914 197.322 178.691C192.996 178.46 188.695 177.826 184.472 176.795C181.003 175.825 177.692 174.304 174.649 172.284C171.122 169.909 167.833 167.154 164.836 164.062C162.241 161.456 159.458 158.373 156.558 155.15C152.109 150.037 147.413 145.178 142.487 140.591C138.808 137.257 134.783 134.382 130.492 132.023C126.773 129.985 122.791 128.545 118.675 127.751C114.78 127.05 110.808 126.967 106.889 127.503C102.535 128.108 98.2645 129.281 94.1775 130.995C86.3302 134.561 78.7971 138.867 71.6682 143.862L70.1915 144.829C66.2598 147.4 62.4225 149.873 58.6652 152.034C55.0041 154.189 51.1852 156.022 47.2456 157.518C43.7342 158.776 40.1244 159.699 36.4594 160.275C34.3512 160.624 32.3125 160.881 30.3058 161.094C31.9957 164.078 33.2198 167.336 33.9299 170.739C34.0544 171.328 34.1637 171.917 34.2574 172.51C34.2804 172.652 34.3073 172.793 34.3268 172.935C34.4289 173.654 34.5074 174.373 34.5631 175.093C34.5756 175.264 34.5811 175.435 34.5918 175.604C34.6273 176.173 34.6429 176.743 34.6465 177.31C34.6465 177.512 34.6465 177.715 34.6465 177.915C34.6359 178.631 34.6088 179.343 34.5466 180.048C34.3256 182.501 33.8064 184.913 33.0012 187.222C32.7361 187.992 32.4459 188.738 32.1257 189.486C32.0848 189.584 32.0372 189.675 31.9928 189.781C31.6512 190.54 31.2808 191.298 30.893 192.029C30.4749 192.801 30.0155 193.545 29.5404 194.27C29.3929 194.495 29.2366 194.711 29.0835 194.932C28.7385 195.43 28.3842 195.918 28.016 196.391C27.2686 197.361 26.4689 198.281 25.6201 199.15C26.524 198.99 27.4418 198.945 28.3557 199.015C29.2114 199.034 30.2756 199.06 31.3803 199.015H31.4785C31.7364 199.007 32.0228 198.984 32.2968 198.966C32.5226 198.953 32.7343 198.945 32.9709 198.927C33.3017 198.903 33.6559 198.865 34.0028 198.831C34.227 198.811 34.4387 198.794 34.6699 198.769C35.0632 198.727 35.4777 198.672 35.8922 198.619C36.0985 198.593 36.2937 198.574 36.5072 198.543C37.137 198.458 37.7919 198.354 38.4643 198.254C40.9549 197.85 43.7021 197.281 46.5663 196.547C49.6975 195.742 52.7884 194.768 55.8264 193.628C58.7357 192.539 61.5862 191.281 64.3654 189.857C66.8186 188.595 69.2734 187.156 71.7499 185.703C75.2297 183.665 78.7575 181.595 82.5713 179.825C85.9212 178.288 89.3702 177.006 92.891 175.993C96.4179 174.965 100.009 174.205 103.638 173.719C106.968 173.265 110.327 173.112 113.68 173.259H113.898C117.045 173.415 120.166 173.924 123.212 174.776C126.188 175.622 129.065 176.827 131.786 178.366C134.576 179.955 137.226 181.812 139.702 183.914C141.581 185.487 143.499 187.284 145.481 189.143C148.672 192.255 152.042 195.152 155.574 197.816C158.572 199.976 161.735 201.868 165.026 203.471C168.102 204.999 171.305 206.214 174.592 207.104C177.448 207.793 180.349 208.244 183.27 208.449C185.661 208.613 188.04 208.956 190.386 209.475C192.683 210.064 194.919 210.888 197.064 211.939C199.524 213.131 201.902 214.507 204.181 216.056C205.351 216.83 206.481 217.674 207.561 218.584C208.187 219.104 208.756 219.695 209.26 220.348L209.438 220.583C209.85 221.097 210.105 221.731 210.171 222.403C210.236 223.074 210.108 223.751 209.804 224.343L209.713 224.516L209.499 224.846C208.443 226.232 206.569 226.388 204.057 226.598C203.004 226.687 201.795 226.788 200.539 226.977C198.671 227.268 196.832 227.739 195.045 228.388C193.244 229.042 191.5 229.867 189.837 230.853C188.225 231.801 186.635 232.938 185.071 234.036C184.359 234.542 183.648 235.038 182.935 235.524C181.409 236.612 179.804 237.569 178.133 238.383C175.32 239.642 172.286 240.238 169.238 240.132C169.231 242.198 168.918 244.249 168.311 246.21C167.589 248.575 166.301 250.698 164.575 252.372C162.844 254.016 160.709 255.101 158.42 255.496C158.113 255.552 157.8 255.594 157.487 255.628C157.376 255.639 157.255 255.644 157.144 255.651C156.939 255.669 156.735 255.685 156.523 255.693C156.392 255.693 156.256 255.693 156.121 255.693C155.928 255.693 155.731 255.693 155.532 255.693C155.395 255.693 155.252 255.672 155.113 255.662C154.916 255.649 154.714 255.639 154.514 255.617C153.089 255.459 151.688 255.127 150.334 254.629C150.185 254.574 150.04 254.506 149.902 254.421C149.858 254.395 149.819 254.363 149.776 254.332C149.69 254.273 149.608 254.21 149.527 254.141C149.486 254.102 149.442 254.057 149.4 254.014C149.361 253.974 149.272 253.875 149.214 253.8C149.156 253.723 149.139 253.699 149.104 253.645C148.801 253.19 148.642 252.645 148.648 252.087C148.656 251.529 148.827 250.989 149.141 250.542C149.454 250.095 149.892 249.766 150.391 249.6C150.891 249.436 151.427 249.444 151.922 249.624C152.404 249.798 152.874 249.935 153.335 250.049C153.477 250.085 153.614 250.109 153.754 250.14C154.075 250.208 154.388 250.267 154.698 250.306C154.847 250.325 154.994 250.342 155.14 250.358C155.45 250.386 155.751 250.397 156.047 250.397C156.166 250.397 156.286 250.397 156.402 250.397C156.445 250.397 156.492 250.397 156.537 250.397L156.491 250.387C156.859 250.374 157.226 250.337 157.59 250.277C158.955 250.049 160.233 249.411 161.269 248.437C162.353 247.37 163.155 246.022 163.601 244.524C164.349 241.908 164.478 239.137 163.981 236.454C163.697 234.529 162.887 232.734 161.654 231.295C160.419 229.856 158.817 228.836 157.043 228.361C153.835 227.266 150.426 227.014 147.108 227.626C146.192 227.783 145.294 228.026 144.416 228.346C125.491 235.467 126.055 251.184 129.736 262.297C130.722 265.268 131.98 268.13 133.492 270.839C136.584 275.543 140.534 279.536 145.103 282.581C148.337 284.597 151.88 285.987 155.569 286.688C159.339 287.391 163.189 287.458 166.978 286.89C170.928 286.311 174.778 285.12 178.404 283.356Z" stroke="#279EFF" stroke-width="2" stroke-miterlimit="10"/>
<path d="M39.7949 211.191C41.647 212.409 43.6435 213.356 45.7314 214.008C49.9443 214.912 54.2696 215.052 58.5261 214.423L59.4016 214.351C62.1481 214.085 64.9068 213.992 67.6635 214.073C70.7891 214.189 73.8841 214.768 76.8593 215.796C80.1475 217.022 83.3035 218.619 86.2734 220.56C89.2829 222.471 92.1718 224.618 94.7098 226.627C96.3336 227.908 98.0245 229.315 99.6026 230.628C101.896 232.621 104.292 234.475 106.78 236.181C108.381 237.224 110.069 238.105 111.822 238.816C113.431 239.475 115.102 239.95 116.804 240.231C118.256 240.452 119.725 240.522 121.19 240.439C122.278 240.387 123.302 240.285 124.307 240.166C124.932 238.473 125.734 236.859 126.7 235.361C126.772 235.251 126.847 235.143 126.92 235.033C127.09 234.781 127.264 234.527 127.442 234.275C127.528 234.156 127.621 234.039 127.7 233.922C127.905 233.647 128.12 233.374 128.341 233.102C128.402 233.029 128.459 232.952 128.52 232.881C128.802 232.542 129.098 232.207 129.408 231.879C129.492 231.788 129.586 231.7 129.666 231.609C129.901 231.363 130.14 231.119 130.391 230.879L130.723 230.56C130.964 230.332 131.216 230.106 131.473 229.885C131.65 229.73 131.827 229.577 132.005 229.424C132.225 229.242 132.449 229.062 132.677 228.886C132.866 228.736 133.06 228.588 133.255 228.442C133.493 228.265 133.736 228.091 133.982 227.917C134.185 227.777 134.388 227.634 134.597 227.494C134.856 227.321 135.129 227.151 135.393 226.981C135.604 226.85 135.814 226.716 136.033 226.586C136.317 226.415 136.616 226.248 136.91 226.082C137.054 226.002 137.197 225.919 137.342 225.841L137.771 225.613C138.029 225.477 138.29 225.343 138.555 225.213L138.865 225.056L139.293 224.849L139.38 224.807C139.703 224.654 140.039 224.506 140.373 224.356L140.552 224.276L140.785 224.174L141.057 224.057C141.618 223.819 142.191 223.585 142.784 223.364C143.924 222.943 145.095 222.625 146.285 222.416C146.737 222.334 147.204 222.266 147.674 222.211C147.831 222.193 147.993 222.183 148.153 222.165C148.472 222.134 148.791 222.103 149.116 222.084C149.31 222.072 149.507 222.069 149.704 222.061C150 222.05 150.297 222.04 150.592 222.038C150.806 222.038 151.021 222.038 151.236 222.05C153.759 222.084 156.261 222.531 158.658 223.377C159.161 223.567 159.653 223.774 160.136 224C160.257 224.057 160.376 224.117 160.492 224.177C160.576 224.22 160.655 224.267 160.739 224.309C161.035 224.46 161.33 224.615 161.618 224.784C161.711 224.841 161.806 224.895 161.901 224.951C162.242 225.163 162.575 225.386 162.9 225.622C162.993 225.69 163.091 225.752 163.182 225.812C163.59 226.119 163.981 226.449 164.356 226.801C164.452 226.89 164.533 226.991 164.632 227.081C164.912 227.355 165.182 227.65 165.44 227.939C165.553 228.073 165.662 228.209 165.774 228.344C166.012 228.642 166.236 228.956 166.453 229.276C166.541 229.407 166.632 229.533 166.72 229.67C167.352 230.68 167.865 231.768 168.243 232.913C168.452 233.544 168.623 234.189 168.756 234.842C171.282 234.981 173.806 234.535 176.156 233.536C178.308 232.422 180.37 231.119 182.32 229.644C184.005 228.453 185.72 227.24 187.422 226.232C189.351 225.091 191.37 224.14 193.459 223.387C195.529 222.637 197.658 222.092 199.82 221.755C200.864 221.594 201.871 221.495 202.795 221.414L201.514 220.524C199.436 219.107 197.265 217.848 195.022 216.757C193.172 215.851 191.243 215.139 189.264 214.631C187.143 214.166 184.994 213.86 182.833 213.71C179.659 213.488 176.506 213 173.404 212.25C169.812 211.272 166.313 209.938 162.954 208.268C159.405 206.541 155.996 204.504 152.764 202.177C149.064 199.394 145.534 196.363 142.192 193.107C140.313 191.346 138.496 189.643 136.623 188.07C134.383 186.165 131.984 184.482 129.458 183.039C127.065 181.682 124.535 180.62 121.918 179.874C119.209 179.122 116.433 178.678 113.637 178.546L113.429 178.525C110.359 178.393 107.285 178.538 104.237 178.955C100.84 179.408 97.4767 180.119 94.1741 181.08C90.8853 182.029 87.6637 183.227 84.5336 184.665C80.9014 186.344 77.4923 188.343 74.1282 190.314C71.6073 191.791 69.1136 193.253 66.5091 194.595C63.5634 196.106 60.5417 197.445 57.4575 198.602C54.2591 199.802 51.0052 200.827 47.7085 201.672C44.7963 202.432 41.8976 203.018 39.2078 203.453C36.6743 203.881 34.1208 204.155 31.5582 204.277L31.0439 204.291C31.9763 205.14 33.0557 206.067 34.2137 207.022C35.9946 208.528 37.8586 209.921 39.7949 211.191Z" stroke="#279EFF" stroke-width="2" stroke-miterlimit="10"/>
<path d="M98.9804 14.3462C99.0796 14.384 99.1773 14.4276 99.2719 14.4769L99.3314 14.5112C99.3757 14.5377 99.4184 14.5661 99.4581 14.5945C99.5435 14.6519 99.6244 14.7152 99.7007 14.7841C99.7495 14.8277 99.7953 14.8733 99.8396 14.9188C99.9067 14.9885 99.9693 15.0628 100.029 15.1408C100.065 15.1901 100.102 15.2393 100.136 15.2905V15.3019C100.186 15.3839 100.235 15.4688 100.278 15.556C100.297 15.5977 100.319 15.6393 100.336 15.681C100.354 15.7226 100.351 15.7132 100.36 15.7303C100.398 15.8293 100.43 15.9306 100.456 16.0338C100.471 16.0811 100.49 16.1266 100.5 16.174C100.534 16.3236 100.555 16.4757 100.568 16.6291C100.568 16.6688 100.568 16.7068 100.568 16.7467C100.574 16.8648 100.574 16.9832 100.568 17.1013C100.568 17.1353 100.568 17.1675 100.568 17.2016C100.568 17.2358 100.558 17.2758 100.554 17.3137C100.54 17.4085 100.526 17.5032 100.51 17.5943V17.6283C100.494 17.6889 100.476 17.7478 100.461 17.8067C100.433 17.8976 100.406 17.9962 100.372 18.0739C100.337 18.1517 100.319 18.201 100.291 18.2636C100.265 18.326 100.207 18.4266 100.162 18.5061C100.116 18.5858 100.094 18.6162 100.059 18.6675V18.6788C100.003 18.7535 99.9434 18.8252 99.8808 18.8931C99.8381 18.9405 99.7984 18.9916 99.7526 19.0352C99.6748 19.1042 99.5939 19.1676 99.5084 19.2249C99.4687 19.2551 99.4291 19.293 99.3818 19.3215C98.9056 19.6154 98.3531 19.7375 97.8068 19.6704C93.1079 19.219 91.3375 26.8205 97.7473 29.9984C108.131 35.1443 114.591 21.8869 112.9 14.9206C111.418 8.82664 106.24 2.27757 99.2185 1.22334C92.8286 0.265826 83.6611 2.51467 77.913 5.53513C63.8035 12.945 62.4822 32.7817 38.9046 32.6244C27.4957 32.5486 17.4866 28.6882 7.70739 36.189C5.61599 37.6935 3.83927 39.6433 2.48926 41.9152C7.05604 43.544 14.3766 43.8113 20.4716 49.0863C28.0395 55.6372 30.5408 71.6174 41.82 77.3776C52.962 83.066 63.9447 76.8087 75.8161 84.5334C87.1331 91.9015 96.2089 103.606 113.798 101.048C140.322 97.1918 150.267 67.7342 176.323 61.2894C180.105 60.3528 194.882 59.0937 194.971 58.4604C195.293 56.2022 189.17 50.4249 186.928 48.7072C169.983 35.7323 156.708 42.2602 147.925 39.2549C135.401 34.9603 136.137 23.4303 117.915 21.9779C117.202 24.8611 115.966 27.5671 114.275 29.9415C114.078 30.2157 113.875 30.4833 113.666 30.7437L113.488 30.9672C113.311 31.1833 113.132 31.3938 112.946 31.5986C112.883 31.6689 112.821 31.7409 112.755 31.8112C112.526 32.0639 112.293 32.3032 112.056 32.5295L112.004 32.5789C111.743 32.831 111.47 33.0737 111.197 33.3069L111.032 33.4416C110.812 33.6225 110.59 33.7969 110.361 33.965L110.129 34.1319C109.903 34.2931 109.672 34.4486 109.437 34.5965C109.373 34.6363 109.314 34.6779 109.25 34.7158C108.944 34.9055 108.639 35.0781 108.322 35.2391H108.308C108.007 35.3946 107.699 35.535 107.388 35.6657L107.147 35.7625C106.901 35.8611 106.651 35.9522 106.397 36.0374L106.136 36.1226C105.842 36.2149 105.546 36.2959 105.247 36.3655L105.14 36.3918C104.795 36.4696 104.439 36.5324 104.085 36.5816C104.021 36.5816 103.959 36.5948 103.896 36.6025C103.608 36.6366 103.318 36.661 103.026 36.6781L102.732 36.6896C102.449 36.6986 102.167 36.6986 101.88 36.6896C101.795 36.6896 101.711 36.6896 101.625 36.6896C100.865 36.6459 100.108 36.5402 99.3634 36.3731L99.0781 36.3048C98.7835 36.2328 98.4859 36.1506 98.1883 36.0582C97.2986 35.7845 96.4287 35.4377 95.5878 35.0211C94.1334 34.3216 92.7965 33.3728 91.629 32.2129C85.7092 38.2936 80.6745 45.0533 83.4719 54.3574C86.895 65.7453 102.492 74.3098 112.181 66.35C121.822 58.4282 113.161 46.5247 106.51 51.7919C103.486 54.1792 106.069 57.8384 105.488 60.0417C105.448 60.1991 105.387 60.3504 105.309 60.4913L105.286 60.5309C105.201 60.6773 105.097 60.8105 104.98 60.9272L104.948 60.9558C104.806 61.0885 104.648 61.2024 104.479 61.2951L104.448 61.3104C104.236 61.4241 104.014 61.5161 103.783 61.5853C103.386 61.7103 102.964 61.7183 102.562 61.6084C102.161 61.4986 101.795 61.2749 101.502 60.9613C101.332 60.7957 101.178 60.6136 101.042 60.4171C101.019 60.3868 100.999 60.3528 100.978 60.3206C100.832 60.1033 100.7 59.8743 100.587 59.636L100.574 59.6095C100.452 59.3455 100.345 59.0731 100.256 58.7941C100.238 58.7411 100.221 58.6899 100.204 58.6368C100.116 58.3428 100.04 58.044 99.9785 57.7418C99.9785 57.6943 99.9647 57.6451 99.954 57.5978C99.8991 57.2962 99.8533 56.9872 99.8274 56.6687C99.8274 56.6326 99.8182 56.5985 99.8152 56.5625C99.7877 56.2287 99.777 55.8836 99.7816 55.5367C99.7816 55.4646 99.7816 55.3925 99.7816 55.3185C99.7892 54.9698 99.8121 54.617 99.8549 54.2624C99.8549 54.2114 99.8701 54.1603 99.8777 54.109C99.9205 53.7753 99.98 53.4402 100.055 53.104C100.069 53.049 100.079 52.9941 100.091 52.9371C100.175 52.5825 100.279 52.2299 100.398 51.8792C100.426 51.8015 100.453 51.7257 100.481 51.6517C100.609 51.2942 100.755 50.9448 100.922 50.605C100.941 50.5651 100.964 50.5273 100.986 50.4874C101.147 50.1611 101.325 49.8448 101.518 49.5395C101.556 49.4825 101.59 49.4256 101.628 49.3706L101.64 49.3535C101.848 49.0492 102.074 48.7581 102.315 48.4814C102.393 48.3885 102.478 48.2917 102.562 48.2083C102.783 47.9705 103.015 47.7454 103.26 47.5334C103.334 47.4671 103.405 47.3986 103.481 47.3436C103.798 47.0852 104.13 46.8477 104.474 46.6325L104.586 46.5606C104.655 46.5188 104.728 46.4809 104.795 46.4412C105.103 46.263 105.427 46.098 105.767 45.9445C105.891 45.8895 106.011 45.8344 106.139 45.7831C106.6 45.593 107.072 45.4329 107.55 45.3036C118.806 42.3305 128.531 59.8844 115.337 70.7225C114.996 71.0031 114.646 71.2628 114.295 71.5149L114.025 71.7044C113.703 71.9263 113.376 72.1387 113.047 72.3359L112.949 72.3986C112.58 72.6168 112.204 72.8194 111.824 73.0089L111.609 73.1133C111.253 73.284 110.898 73.4432 110.542 73.5893L110.445 73.6291C110.039 73.7921 109.631 73.94 109.219 74.0727L109.129 74.0994C108.729 74.2264 108.322 74.3383 107.917 74.4369L107.864 74.45C106.997 74.6564 106.118 74.802 105.233 74.8861C100.937 75.1172 96.6515 74.2557 92.7294 72.3725C88.8072 70.4893 85.3612 67.6386 82.6783 64.0558C81.7336 62.8179 80.8958 61.4924 80.1739 60.0949C80.1617 60.0723 80.151 60.0495 80.1388 60.0267C79.6793 59.1266 79.2728 58.197 78.9216 57.2432C78.9056 57.1957 78.8863 57.1503 78.8703 57.1028C78.6924 56.6289 78.5408 56.1547 78.4004 55.6637C78.2615 55.1878 78.1405 54.7061 78.032 54.2208C78.0213 54.1696 78.0071 54.1204 77.9965 54.0692C77.8933 53.5915 77.8045 53.1097 77.7315 52.6224C77.7315 52.558 77.7161 52.4936 77.7054 52.4329C77.6397 51.9607 77.5838 51.4846 77.5464 51.005C77.5464 50.9804 77.5464 50.9558 77.5464 50.9311C77.5092 50.442 77.4936 49.9508 77.4883 49.4541C77.4883 49.361 77.4883 49.2644 77.4883 49.1772C77.4883 48.6823 77.5021 48.1837 77.5377 47.6831C77.5377 47.6603 77.5377 47.6358 77.5377 47.613C77.5716 47.1353 77.6249 46.6537 77.6906 46.172C77.7048 46.0733 77.7172 45.9824 77.7315 45.8762C77.8051 45.3858 77.8957 44.8926 78.0026 44.3972C78.0203 44.31 78.0429 44.2208 78.0642 44.1335C78.1662 43.681 78.2852 43.228 78.4203 42.7742C78.4435 42.6964 78.4615 42.6205 78.4864 42.5427C78.6341 42.046 78.8059 41.5493 78.9927 41.0506C79.0338 40.9406 79.077 40.8308 79.1197 40.7189C79.3189 40.2088 79.5284 39.6968 79.7668 39.1848C82.1075 34.7319 85.1659 30.7528 88.8011 27.4291C88.6989 27.0667 88.618 26.6982 88.5569 26.3257C88.5371 26.2081 88.5341 26.085 88.5173 25.9654C88.4822 25.7056 88.4471 25.4439 88.4333 25.1785C88.4242 25.0344 88.4333 24.8885 88.4333 24.7444C88.4333 24.4978 88.415 24.2514 88.4333 24.001C88.4333 23.8532 88.4593 23.7032 88.4699 23.5534C88.4883 23.307 88.5035 23.0607 88.5341 22.8141C88.5554 22.6643 88.589 22.5163 88.6134 22.3665C88.6561 22.1219 88.6943 21.8774 88.7508 21.6347C88.7859 21.4887 88.8317 21.3485 88.8729 21.2044C88.9385 20.9617 88.998 20.7188 89.0804 20.4799C89.1277 20.3397 89.1903 20.2032 89.2422 20.0648C89.3307 19.8316 89.4192 19.5965 89.5215 19.369C89.584 19.2306 89.6619 19.0998 89.7305 18.9651C89.8435 18.747 89.9503 18.529 90.0739 18.3205C90.9255 16.8622 92.1525 15.6953 93.6084 14.9588C95.0643 14.2223 96.6881 13.9471 98.286 14.1661C98.4676 14.1851 98.6462 14.2212 98.8201 14.2742L98.9224 14.3101L98.9804 14.3462Z" stroke="#279EFF" stroke-width="2" stroke-miterlimit="10"/>
</g>
</svg>
