<svg width="335" height="289" viewBox="0 0 335 289" fill="none" xmlns="http://www.w3.org/2000/svg">
<g opacity="0.4">
<path d="M155.592 272.025C155.853 271.519 156.126 270.994 156.381 270.441C156.399 270.402 156.417 270.361 156.434 270.32C156.686 269.79 156.935 269.234 157.181 268.666C157.234 268.544 157.284 268.427 157.336 268.304C157.588 267.711 157.837 267.1 158.079 266.47C158.127 266.345 158.172 266.217 158.221 266.091C158.47 265.425 158.716 264.748 158.949 264.047C159.894 261.226 160.581 258.317 161.002 255.355C161.022 255.216 161.042 255.076 161.058 254.938C161.145 254.249 161.219 253.554 161.272 252.853C161.272 252.755 161.283 252.663 161.29 252.564C161.333 251.915 161.359 251.264 161.368 250.612C161.368 250.501 161.368 250.389 161.368 250.278C161.368 249.58 161.348 248.886 161.309 248.191C161.309 248.047 161.289 247.9 161.278 247.754C161.226 247.04 161.159 246.322 161.055 245.612L162.58 245.719C164.362 245.815 166.15 245.726 167.917 245.452C169.968 245.117 171.981 244.55 173.919 243.759C175.961 242.93 177.927 241.9 179.79 240.683C182.442 238.868 184.997 236.895 187.441 234.772C188.838 233.611 190.333 232.367 192.243 230.862C194.656 228.954 197.402 226.915 200.249 225.099V225.088C202.908 223.344 205.734 221.91 208.68 220.809C211.222 219.935 213.865 219.444 216.534 219.348C219.095 219.273 221.657 219.358 224.207 219.607L225.084 219.677C229.904 220.384 234.802 220.192 239.56 219.107C242.083 218.323 244.494 217.183 246.731 215.714C248.841 214.348 250.873 212.847 252.813 211.219C254.727 209.639 256.466 208.1 257.763 206.816C258.877 205.841 259.797 204.639 260.469 203.281C260.727 202.658 260.82 201.972 260.736 201.297L261.161 201.633C263.933 203.815 267.097 205.363 270.455 206.184C273.636 206.981 276.951 206.938 280.111 206.056C282.841 205.244 285.339 203.725 287.382 201.632C289.482 199.478 291.097 196.846 292.106 193.933C293.032 191.272 293.455 188.444 293.351 185.607C293.31 182.974 292.591 180.404 291.273 178.175C289.993 176.255 288.167 174.823 286.064 174.094C285.605 173.917 285.144 173.761 284.681 173.624C284.518 173.576 284.353 173.538 284.187 173.494C283.887 173.413 283.584 173.327 283.282 173.257C283.081 173.211 282.878 173.169 282.678 173.128C282.404 173.071 282.132 173.01 281.858 172.956L281.127 172.819L280.354 172.676C280.023 172.595 279.679 172.587 279.345 172.652C279.011 172.717 278.693 172.853 278.41 173.055C278.128 173.255 277.886 173.515 277.702 173.82C277.517 174.124 277.393 174.464 277.337 174.822C277.28 175.178 277.292 175.544 277.373 175.895C277.454 176.246 277.602 176.577 277.807 176.866C278.012 177.154 278.27 177.395 278.566 177.574C278.862 177.751 279.188 177.863 279.526 177.902C279.919 177.972 280.312 178.044 280.702 178.119L281.097 178.197C281.364 178.249 281.631 178.302 281.889 178.358C282.045 178.392 282.196 178.428 282.349 178.463C282.579 178.517 282.807 178.574 283.027 178.633C283.179 178.673 283.326 178.717 283.474 178.759C283.568 178.787 283.668 178.811 283.761 178.841L283.689 178.831C283.921 178.906 284.157 178.976 284.37 179.057C284.674 179.174 284.971 179.312 285.26 179.467C285.351 179.514 285.438 179.574 285.52 179.626C285.703 179.732 285.881 179.849 286.053 179.976C286.085 179.999 286.121 180.017 286.151 180.041L286.102 180.018C286.517 180.329 286.877 180.714 287.168 181.155C287.962 182.569 288.383 184.184 288.387 185.832C288.463 187.962 288.144 190.09 287.448 192.089C286.7 194.251 285.503 196.204 283.946 197.803C282.498 199.298 280.725 200.386 278.786 200.97C276.405 201.619 273.911 201.638 271.522 201.027C268.832 200.368 266.297 199.125 264.077 197.377C261.356 195.226 259.081 192.504 257.39 189.377C255.733 186.378 254.705 183.032 254.376 179.571C254.076 175.669 254.617 171.747 255.957 168.104C256.921 165.419 258.286 162.915 259.997 160.693L260.195 160.443C260.768 159.723 261.378 159.04 262.024 158.395C264.883 155.613 268.304 153.567 272.022 152.417C276.249 151.099 280.667 150.629 285.055 151.031C292.232 151.974 299.301 153.693 306.151 156.164C309.293 157.161 312.4 158.149 315.446 158.983C320.257 160.345 325.166 161.272 330.123 161.753C333.992 162.172 337.899 161.963 341.709 161.131C344.905 160.26 347.944 158.83 350.7 156.897C351.584 156.24 352.545 155.71 353.559 155.32L353.666 155.308C353.756 155.308 353.889 155.46 354.055 155.735C354.565 156.756 354.857 157.883 354.911 159.038C354.998 159.986 355.022 160.94 354.98 161.892C354.797 165.501 354.134 169.065 353.011 172.476C352.039 175.619 350.597 178.572 348.741 181.224C345.057 186.276 339.401 189.303 333.465 192.481L331.929 193.304C328.421 195.143 325.004 197.173 321.689 199.382C318.311 201.627 315.209 204.312 312.458 207.378C308.939 211.716 305.891 216.463 303.373 221.529C302.138 223.805 300.882 226.108 299.441 228.497C297.12 232.419 294.46 236.1 291.497 239.494C289.103 242.255 286.37 244.655 283.372 246.635C280.246 248.587 276.846 249.992 273.303 250.795C269.475 251.658 265.586 252.168 261.677 252.321C259.178 252.456 256.428 252.511 253.672 252.57C247.765 252.528 241.863 252.957 236.016 253.852C232.044 254.595 228.16 255.794 224.43 257.427C221.037 258.917 217.759 260.693 214.63 262.738C210.626 265.327 207.177 268.06 203.64 270.862C202.107 272.077 200.548 273.31 198.575 274.805C195.849 276.91 193.009 278.842 190.072 280.592C187.206 282.313 184.15 283.65 180.976 284.574C177.956 285.385 174.838 285.714 171.726 285.545C168.411 285.368 165.133 284.715 161.982 283.603C159.667 282.781 157.411 281.778 155.233 280.602C153.95 279.917 152.654 279.169 151.352 278.378C152.686 276.945 153.832 275.33 154.763 273.573C155.035 273.089 155.313 272.572 155.592 272.025Z" stroke="#279EFF" stroke-width="2" stroke-miterlimit="10"/>
<path d="M105.596 283.356C101.872 281.485 98.3526 279.185 95.0989 276.498C91.8116 273.844 88.677 270.872 85.7789 268.008L83.0975 265.337C78.31 260.535 74.0704 256.283 69.0434 253.416C66.0216 251.732 62.803 250.487 59.473 249.712C56.2193 248.954 52.9168 248.447 49.5944 248.196C47.7844 248.04 45.8249 247.931 43.8653 247.817C39.4503 247.682 35.0489 247.201 30.6995 246.378C24.1417 244.953 17.9349 242.082 12.479 237.949C9.77473 235.888 7.24748 233.572 4.9293 231.033C3.8778 229.903 2.89802 228.699 1.99914 227.43H3.1193C4.42719 227.43 5.95026 227.43 7.59848 227.299C11.0231 226.999 14.3928 226.214 17.6221 224.961C20.8025 223.741 23.8136 222.061 26.5652 219.969C31.6319 215.687 36.192 210.766 40.1462 205.314L42.7864 202.003C45.1793 198.984 47.7234 196.103 50.4063 193.377C52.9397 190.802 55.7249 188.525 58.713 186.581C61.5898 184.774 64.6435 183.307 67.8194 182.204C71.3463 180.975 74.9708 180.085 78.6488 179.55C81.3729 179.143 84.0528 178.914 86.6777 178.691C91.0043 178.46 95.3049 177.826 99.5277 176.795C102.997 175.825 106.308 174.304 109.351 172.284C112.878 169.909 116.167 167.154 119.164 164.062C121.759 161.456 124.542 158.373 127.442 155.15C131.891 150.037 136.587 145.178 141.513 140.591C145.192 137.257 149.217 134.382 153.508 132.023C157.227 129.985 161.209 128.545 165.325 127.751C169.22 127.05 173.192 126.967 177.111 127.503C181.465 128.108 185.736 129.281 189.822 130.995C197.67 134.561 205.203 138.867 212.332 143.862L213.808 144.829C217.74 147.4 221.578 149.873 225.335 152.034C228.996 154.189 232.815 156.022 236.754 157.518C240.266 158.776 243.876 159.699 247.541 160.275C249.649 160.624 251.688 160.881 253.694 161.094C252.004 164.078 250.78 167.336 250.07 170.739C249.946 171.328 249.836 171.917 249.743 172.51C249.72 172.652 249.693 172.793 249.673 172.935C249.571 173.654 249.493 174.373 249.437 175.093C249.424 175.264 249.419 175.435 249.408 175.604C249.373 176.173 249.357 176.743 249.353 177.31C249.353 177.512 249.353 177.715 249.353 177.915C249.364 178.631 249.391 179.343 249.453 180.048C249.674 182.501 250.194 184.913 250.999 187.222C251.264 187.992 251.554 188.738 251.874 189.486C251.915 189.584 251.963 189.675 252.007 189.781C252.349 190.54 252.719 191.298 253.107 192.029C253.525 192.801 253.984 193.545 254.46 194.27C254.607 194.495 254.763 194.711 254.916 194.932C255.262 195.43 255.616 195.918 255.984 196.391C256.731 197.361 257.531 198.281 258.38 199.15C257.476 198.99 256.558 198.945 255.644 199.015C254.789 199.034 253.724 199.06 252.62 199.015H252.522C252.264 199.007 251.977 198.984 251.703 198.966C251.477 198.953 251.266 198.945 251.029 198.927C250.698 198.903 250.344 198.865 249.997 198.831C249.773 198.811 249.561 198.794 249.33 198.769C248.937 198.727 248.522 198.672 248.108 198.619C247.902 198.593 247.706 198.574 247.493 198.543C246.863 198.458 246.208 198.354 245.536 198.254C243.045 197.85 240.298 197.281 237.434 196.547C234.303 195.742 231.212 194.768 228.174 193.628C225.264 192.539 222.414 191.281 219.635 189.857C217.181 188.595 214.727 187.156 212.25 185.703C208.77 183.665 205.242 181.595 201.429 179.825C198.079 178.288 194.63 177.006 191.109 175.993C187.582 174.965 183.991 174.205 180.362 173.719C177.032 173.265 173.673 173.112 170.32 173.259H170.102C166.955 173.415 163.834 173.924 160.788 174.776C157.812 175.622 154.935 176.827 152.214 178.366C149.424 179.955 146.774 181.812 144.298 183.914C142.419 185.487 140.501 187.284 138.519 189.143C135.328 192.255 131.958 195.152 128.426 197.816C125.428 199.976 122.265 201.868 118.974 203.471C115.898 204.999 112.695 206.214 109.408 207.104C106.552 207.793 103.651 208.244 100.73 208.449C98.3389 208.613 95.9596 208.956 93.614 209.475C91.3172 210.064 89.0814 210.888 86.9357 211.939C84.4756 213.131 82.0978 214.507 79.8193 216.056C78.6488 216.83 77.5195 217.674 76.439 218.584C75.8133 219.104 75.244 219.695 74.7404 220.348L74.5618 220.583C74.1498 221.097 73.8949 221.731 73.8293 222.403C73.7637 223.074 73.8919 223.751 74.1956 224.343L74.2871 224.516L74.5008 224.846C75.5569 226.232 77.431 226.388 79.943 226.598C80.996 226.687 82.2047 226.788 83.4607 226.977C85.3286 227.268 87.1676 227.739 88.9547 228.388C90.7556 229.042 92.4999 229.867 94.1634 230.853C95.775 231.801 97.3652 232.938 98.9295 234.036C99.6407 234.542 100.352 235.038 101.065 235.524C102.591 236.612 104.196 237.569 105.867 238.383C108.68 239.642 111.714 240.238 114.762 240.132C114.769 242.198 115.082 244.249 115.689 246.21C116.411 248.575 117.699 250.698 119.425 252.372C121.156 254.016 123.291 255.101 125.58 255.496C125.887 255.552 126.2 255.594 126.513 255.628C126.624 255.639 126.745 255.644 126.856 255.651C127.061 255.669 127.265 255.685 127.477 255.693C127.608 255.693 127.744 255.693 127.879 255.693C128.072 255.693 128.269 255.693 128.468 255.693C128.605 255.693 128.748 255.672 128.887 255.662C129.084 255.649 129.286 255.639 129.486 255.617C130.911 255.459 132.312 255.127 133.666 254.629C133.815 254.574 133.96 254.506 134.098 254.421C134.142 254.395 134.181 254.363 134.224 254.332C134.31 254.273 134.392 254.21 134.473 254.141C134.514 254.102 134.558 254.057 134.6 254.014C134.639 253.974 134.728 253.875 134.786 253.8C134.844 253.723 134.861 253.699 134.896 253.645C135.199 253.19 135.358 252.645 135.352 252.087C135.344 251.529 135.173 250.989 134.859 250.542C134.546 250.095 134.108 249.766 133.609 249.6C133.109 249.436 132.573 249.444 132.078 249.624C131.596 249.798 131.126 249.935 130.665 250.049C130.523 250.085 130.386 250.109 130.246 250.14C129.925 250.208 129.612 250.267 129.302 250.306C129.153 250.325 129.006 250.342 128.86 250.358C128.55 250.386 128.249 250.397 127.953 250.397C127.834 250.397 127.714 250.397 127.598 250.397C127.555 250.397 127.508 250.397 127.463 250.397L127.509 250.387C127.141 250.374 126.774 250.337 126.41 250.277C125.045 250.049 123.767 249.411 122.731 248.437C121.647 247.37 120.845 246.022 120.399 244.524C119.651 241.908 119.522 239.137 120.019 236.454C120.303 234.529 121.113 232.734 122.346 231.295C123.581 229.856 125.183 228.836 126.957 228.361C130.165 227.266 133.574 227.014 136.892 227.626C137.808 227.783 138.706 228.026 139.584 228.346C158.509 235.467 157.945 251.184 154.264 262.297C153.278 265.268 152.02 268.13 150.508 270.839C147.416 275.543 143.466 279.536 138.897 282.581C135.663 284.597 132.12 285.987 128.431 286.688C124.661 287.391 120.811 287.458 117.022 286.89C113.072 286.311 109.222 285.12 105.596 283.356Z" stroke="#279EFF" stroke-width="2" stroke-miterlimit="10"/>
<path d="M244.205 211.191C242.353 212.409 240.357 213.356 238.269 214.008C234.056 214.912 229.73 215.052 225.474 214.423L224.598 214.351C221.852 214.085 219.093 213.992 216.337 214.073C213.211 214.189 210.116 214.768 207.141 215.796C203.853 217.022 200.696 218.619 197.727 220.56C194.717 222.471 191.828 224.618 189.29 226.627C187.666 227.908 185.975 229.315 184.397 230.628C182.104 232.621 179.708 234.475 177.22 236.181C175.619 237.224 173.931 238.105 172.178 238.816C170.569 239.475 168.898 239.95 167.196 240.231C165.744 240.452 164.275 240.522 162.81 240.439C161.722 240.387 160.698 240.285 159.693 240.166C159.068 238.473 158.266 236.859 157.3 235.361C157.228 235.251 157.153 235.143 157.08 235.033C156.91 234.781 156.736 234.527 156.558 234.275C156.472 234.156 156.379 234.039 156.3 233.922C156.095 233.647 155.88 233.374 155.659 233.102C155.598 233.029 155.541 232.952 155.48 232.881C155.198 232.542 154.902 232.207 154.592 231.879C154.508 231.788 154.414 231.7 154.334 231.609C154.099 231.363 153.86 231.119 153.609 230.879L153.277 230.56C153.036 230.332 152.784 230.106 152.527 229.885C152.35 229.73 152.173 229.577 151.995 229.424C151.775 229.242 151.551 229.062 151.323 228.886C151.134 228.736 150.94 228.588 150.745 228.442C150.507 228.265 150.264 228.091 150.018 227.917C149.815 227.777 149.612 227.634 149.403 227.494C149.144 227.321 148.871 227.151 148.607 226.981C148.396 226.85 148.186 226.716 147.967 226.586C147.683 226.415 147.384 226.248 147.09 226.082C146.946 226.002 146.803 225.919 146.658 225.841L146.229 225.613C145.971 225.477 145.71 225.343 145.445 225.213L145.135 225.056L144.707 224.849L144.62 224.807C144.297 224.654 143.961 224.506 143.627 224.356L143.448 224.276L143.215 224.174L142.943 224.057C142.382 223.819 141.809 223.585 141.216 223.364C140.076 222.943 138.905 222.625 137.715 222.416C137.263 222.334 136.796 222.266 136.326 222.211C136.169 222.193 136.007 222.183 135.847 222.165C135.528 222.134 135.209 222.103 134.884 222.084C134.69 222.072 134.493 222.069 134.296 222.061C134 222.05 133.703 222.04 133.408 222.038C133.194 222.038 132.979 222.038 132.764 222.05C130.241 222.084 127.739 222.531 125.342 223.377C124.839 223.567 124.347 223.774 123.864 224C123.743 224.057 123.624 224.117 123.508 224.177C123.424 224.22 123.345 224.267 123.261 224.309C122.965 224.46 122.67 224.615 122.382 224.784C122.289 224.841 122.194 224.895 122.099 224.951C121.758 225.163 121.425 225.386 121.1 225.622C121.007 225.69 120.909 225.752 120.818 225.812C120.41 226.119 120.019 226.449 119.644 226.801C119.548 226.89 119.467 226.991 119.368 227.081C119.088 227.355 118.818 227.65 118.56 227.939C118.447 228.073 118.338 228.209 118.226 228.344C117.988 228.642 117.764 228.956 117.547 229.276C117.459 229.407 117.368 229.533 117.28 229.67C116.648 230.68 116.135 231.768 115.757 232.913C115.548 233.544 115.377 234.189 115.244 234.842C112.718 234.981 110.194 234.535 107.844 233.536C105.692 232.422 103.63 231.119 101.68 229.644C99.9951 228.453 98.2797 227.24 96.5781 226.232C94.649 225.091 92.63 224.14 90.5407 223.387C88.4713 222.637 86.3424 222.092 84.1798 221.755C83.136 221.594 82.1287 221.495 81.2054 221.414L82.4858 220.524C84.5644 219.107 86.7346 217.848 88.978 216.757C90.8276 215.851 92.7566 215.139 94.736 214.631C96.8573 214.166 99.0061 213.86 101.167 213.71C104.341 213.488 107.494 213 110.596 212.25C114.188 211.272 117.687 209.938 121.046 208.268C124.595 206.541 128.004 204.504 131.236 202.177C134.936 199.394 138.466 196.363 141.808 193.107C143.687 191.346 145.504 189.643 147.377 188.07C149.617 186.165 152.016 184.482 154.542 183.039C156.935 181.682 159.465 180.62 162.082 179.874C164.791 179.122 167.567 178.678 170.363 178.546L170.571 178.525C173.641 178.393 176.715 178.538 179.763 178.955C183.16 179.408 186.523 180.119 189.826 181.08C193.115 182.029 196.336 183.227 199.466 184.665C203.099 186.344 206.508 188.343 209.872 190.314C212.393 191.791 214.886 193.253 217.491 194.595C220.437 196.106 223.458 197.445 226.542 198.602C229.741 199.802 232.995 200.827 236.292 201.672C239.204 202.432 242.102 203.018 244.792 203.453C247.326 203.881 249.879 204.155 252.442 204.277L252.956 204.291C252.024 205.14 250.944 206.067 249.786 207.022C248.005 208.528 246.141 209.921 244.205 211.191Z" stroke="#279EFF" stroke-width="2" stroke-miterlimit="10"/>
<path d="M185.02 14.3462C184.92 14.384 184.823 14.4276 184.728 14.4769L184.669 14.5112C184.624 14.5377 184.582 14.5661 184.542 14.5945C184.456 14.6519 184.376 14.7152 184.299 14.7841C184.25 14.8277 184.205 14.8733 184.16 14.9188C184.093 14.9885 184.031 15.0628 183.971 15.1408C183.935 15.1901 183.898 15.2393 183.864 15.2905V15.3019C183.814 15.3839 183.765 15.4688 183.722 15.556C183.703 15.5977 183.681 15.6393 183.664 15.681C183.646 15.7226 183.649 15.7132 183.64 15.7303C183.602 15.8293 183.57 15.9306 183.544 16.0338C183.529 16.0811 183.51 16.1266 183.5 16.174C183.466 16.3236 183.445 16.4757 183.432 16.6291C183.432 16.6688 183.432 16.7068 183.432 16.7467C183.426 16.8648 183.426 16.9832 183.432 17.1013C183.432 17.1353 183.432 17.1675 183.432 17.2016C183.432 17.2358 183.442 17.2758 183.446 17.3137C183.46 17.4085 183.474 17.5032 183.49 17.5943V17.6283C183.506 17.6889 183.524 17.7478 183.539 17.8067C183.567 17.8976 183.594 17.9962 183.628 18.0739C183.663 18.1517 183.681 18.201 183.709 18.2636C183.735 18.326 183.793 18.4266 183.838 18.5061C183.884 18.5858 183.906 18.6162 183.941 18.6675V18.6788C183.997 18.7535 184.057 18.8252 184.119 18.8931C184.162 18.9405 184.202 18.9916 184.247 19.0352C184.325 19.1042 184.406 19.1676 184.492 19.2249C184.531 19.2551 184.571 19.293 184.618 19.3215C185.094 19.6154 185.647 19.7375 186.193 19.6704C190.892 19.219 192.662 26.8205 186.253 29.9984C175.869 35.1443 169.409 21.8869 171.1 14.9206C172.582 8.82664 177.76 2.27757 184.782 1.22334C191.171 0.265826 200.339 2.51467 206.087 5.53513C220.197 12.945 221.518 32.7817 245.095 32.6244C256.504 32.5486 266.513 28.6882 276.293 36.189C278.384 37.6935 280.161 39.6433 281.511 41.9152C276.944 43.544 269.623 43.8113 263.528 49.0863C255.961 55.6372 253.459 71.6174 242.18 77.3776C231.038 83.066 220.055 76.8087 208.184 84.5334C196.867 91.9015 187.791 103.606 170.202 101.048C143.678 97.1918 133.733 67.7342 107.677 61.2894C103.895 60.3528 89.1179 59.0937 89.0294 58.4604C88.7074 56.2022 94.8302 50.4249 97.0721 48.7072C114.017 35.7323 127.292 42.2602 136.075 39.2549C148.599 34.9603 147.863 23.4303 166.085 21.9779C166.798 24.8611 168.034 27.5671 169.725 29.9415C169.922 30.2157 170.125 30.4833 170.334 30.7437L170.512 30.9672C170.689 31.1833 170.868 31.3938 171.054 31.5986C171.117 31.6689 171.179 31.7409 171.245 31.8112C171.474 32.0639 171.707 32.3032 171.944 32.5295L171.996 32.5789C172.257 32.831 172.53 33.0737 172.803 33.3069L172.968 33.4416C173.188 33.6225 173.41 33.7969 173.639 33.965L173.871 34.1319C174.097 34.2931 174.328 34.4486 174.563 34.5965C174.627 34.6363 174.686 34.6779 174.75 34.7158C175.056 34.9055 175.361 35.0781 175.678 35.2391H175.692C175.993 35.3946 176.301 35.535 176.612 35.6657L176.853 35.7625C177.099 35.8611 177.349 35.9522 177.603 36.0374L177.864 36.1226C178.158 36.2149 178.454 36.2959 178.753 36.3655L178.86 36.3918C179.205 36.4696 179.561 36.5324 179.915 36.5816C179.979 36.5816 180.041 36.5948 180.104 36.6025C180.392 36.6366 180.682 36.661 180.974 36.6781L181.268 36.6896C181.551 36.6986 181.833 36.6986 182.12 36.6896C182.205 36.6896 182.289 36.6896 182.375 36.6896C183.135 36.6459 183.892 36.5402 184.637 36.3731L184.922 36.3048C185.216 36.2328 185.514 36.1506 185.812 36.0582C186.701 35.7845 187.571 35.4377 188.412 35.0211C189.867 34.3216 191.203 33.3728 192.371 32.2129C198.291 38.2936 203.325 45.0533 200.528 54.3574C197.105 65.7453 181.508 74.3098 171.819 66.35C162.178 58.4282 170.839 46.5247 177.49 51.7919C180.514 54.1792 177.931 57.8384 178.512 60.0417C178.552 60.1991 178.613 60.3504 178.691 60.4913L178.714 60.5309C178.799 60.6773 178.903 60.8105 179.02 60.9272L179.052 60.9558C179.194 61.0885 179.352 61.2024 179.521 61.2951L179.552 61.3104C179.764 61.4241 179.986 61.5161 180.217 61.5853C180.614 61.7103 181.036 61.7183 181.438 61.6084C181.839 61.4986 182.205 61.2749 182.498 60.9613C182.668 60.7957 182.822 60.6136 182.958 60.4171C182.981 60.3868 183.001 60.3528 183.022 60.3206C183.168 60.1033 183.3 59.8743 183.413 59.636L183.426 59.6095C183.548 59.3455 183.655 59.0731 183.744 58.7941C183.762 58.7411 183.779 58.6899 183.796 58.6368C183.884 58.3428 183.96 58.044 184.022 57.7418C184.022 57.6943 184.035 57.6451 184.046 57.5978C184.101 57.2962 184.147 56.9872 184.173 56.6687C184.173 56.6326 184.182 56.5985 184.185 56.5625C184.212 56.2287 184.223 55.8836 184.218 55.5367C184.218 55.4646 184.218 55.3925 184.218 55.3185C184.211 54.9698 184.188 54.617 184.145 54.2624C184.145 54.2114 184.13 54.1603 184.122 54.109C184.08 53.7753 184.02 53.4402 183.945 53.104C183.931 53.049 183.921 52.9941 183.909 52.9371C183.825 52.5825 183.721 52.2299 183.602 51.8792C183.574 51.8015 183.547 51.7257 183.519 51.6517C183.391 51.2942 183.245 50.9448 183.078 50.605C183.059 50.5651 183.036 50.5273 183.014 50.4874C182.853 50.1611 182.675 49.8448 182.482 49.5395C182.444 49.4825 182.41 49.4256 182.372 49.3706L182.36 49.3535C182.152 49.0492 181.926 48.7581 181.685 48.4814C181.607 48.3885 181.522 48.2917 181.438 48.2083C181.217 47.9705 180.985 47.7454 180.74 47.5334C180.666 47.4671 180.595 47.3986 180.519 47.3436C180.202 47.0852 179.87 46.8477 179.526 46.6325L179.414 46.5606C179.345 46.5188 179.272 46.4809 179.205 46.4412C178.897 46.263 178.573 46.098 178.233 45.9445C178.109 45.8895 177.989 45.8344 177.861 45.7831C177.4 45.593 176.928 45.4329 176.45 45.3036C165.194 42.3305 155.469 59.8844 168.663 70.7225C169.004 71.0031 169.354 71.2628 169.705 71.5149L169.975 71.7044C170.297 71.9263 170.624 72.1387 170.953 72.3359L171.051 72.3986C171.42 72.6168 171.796 72.8194 172.176 73.0089L172.391 73.1133C172.747 73.284 173.102 73.4432 173.458 73.5893L173.555 73.6291C173.961 73.7921 174.369 73.94 174.781 74.0727L174.871 74.0994C175.271 74.2264 175.678 74.3383 176.083 74.4369L176.136 74.45C177.003 74.6564 177.882 74.802 178.767 74.8861C183.063 75.1172 187.348 74.2557 191.271 72.3725C195.193 70.4893 198.639 67.6386 201.322 64.0558C202.266 62.8179 203.104 61.4924 203.826 60.0949C203.838 60.0723 203.849 60.0495 203.861 60.0267C204.321 59.1266 204.727 58.197 205.078 57.2432C205.094 57.1957 205.114 57.1503 205.13 57.1028C205.308 56.6289 205.459 56.1547 205.6 55.6637C205.738 55.1878 205.859 54.7061 205.968 54.2208C205.979 54.1696 205.993 54.1204 206.004 54.0692C206.107 53.5915 206.196 53.1097 206.268 52.6224C206.268 52.558 206.284 52.4936 206.295 52.4329C206.36 51.9607 206.416 51.4846 206.454 51.005C206.454 50.9804 206.454 50.9558 206.454 50.9311C206.491 50.442 206.506 49.9508 206.512 49.4541C206.512 49.361 206.512 49.2644 206.512 49.1772C206.512 48.6823 206.498 48.1837 206.462 47.6831C206.462 47.6603 206.462 47.6358 206.462 47.613C206.428 47.1353 206.375 46.6537 206.309 46.172C206.295 46.0733 206.283 45.9824 206.268 45.8762C206.195 45.3858 206.104 44.8926 205.997 44.3972C205.98 44.31 205.957 44.2208 205.936 44.1335C205.834 43.681 205.715 43.228 205.58 42.7742C205.557 42.6964 205.539 42.6205 205.514 42.5427C205.366 42.046 205.194 41.5493 205.007 41.0506C204.966 40.9406 204.923 40.8308 204.88 40.7189C204.681 40.2088 204.472 39.6968 204.233 39.1848C201.892 34.7319 198.834 30.7528 195.199 27.4291C195.301 27.0667 195.382 26.6982 195.443 26.3257C195.463 26.2081 195.466 26.085 195.483 25.9654C195.518 25.7056 195.553 25.4439 195.567 25.1785C195.576 25.0344 195.567 24.8885 195.567 24.7444C195.567 24.4978 195.585 24.2514 195.567 24.001C195.567 23.8532 195.541 23.7032 195.53 23.5534C195.512 23.307 195.496 23.0607 195.466 22.8141C195.445 22.6643 195.411 22.5163 195.387 22.3665C195.344 22.1219 195.306 21.8774 195.249 21.6347C195.214 21.4887 195.168 21.3485 195.127 21.2044C195.062 20.9617 195.002 20.7188 194.92 20.4799C194.872 20.3397 194.81 20.2032 194.758 20.0648C194.669 19.8316 194.581 19.5965 194.479 19.369C194.416 19.2306 194.338 19.0998 194.269 18.9651C194.157 18.747 194.05 18.529 193.926 18.3205C193.075 16.8622 191.848 15.6953 190.392 14.9588C188.936 14.2223 187.312 13.9471 185.714 14.1661C185.532 14.1851 185.354 14.2212 185.18 14.2742L185.078 14.3101L185.02 14.3462Z" stroke="#279EFF" stroke-width="2" stroke-miterlimit="10"/>
</g>
</svg>
